<svg width="60" height="44" viewBox="0 0 60 44" fill="none" xmlns="http://www.w3.org/2000/svg">
<path d="M16.0875 17.3142C15.5679 17.0294 15.0469 16.887 14.5272 16.887H12.1915V27.1474H14.5286C15.0482 27.1474 15.5692 27.005 16.0888 26.7202C16.6085 26.4354 16.8683 26.0081 16.8683 25.4375V18.5969C16.867 18.0272 16.6058 17.599 16.0875 17.3142ZM54.1205 0H5.87946C2.63839 0 0.00803571 1.92402 0 4.30179V39.6982C0.00803571 42.076 2.63839 44 5.87946 44H54.1205C57.3629 44 59.992 42.076 60 39.6982V4.30179C59.992 1.92402 57.3616 0 54.1205 0ZM20.6518 25.4562C20.6518 27.3036 19.0969 30.1027 14.175 30.0968H7.96071V13.8462H14.3063C19.0527 13.8462 20.6491 16.6414 20.6504 18.4898L20.6518 25.4562ZM34.1357 16.7485H27V20.5219H31.3621V23.4261H27V27.1985H34.1371V30.1027H25.8094C24.3147 30.1312 23.0719 29.2649 23.0344 28.1688V15.8812C22.9982 14.7862 24.1808 13.8767 25.6741 13.8492H34.1371L34.1357 16.7485ZM48.0161 28.0716C46.2482 31.0917 43.0808 30.4906 41.6625 28.0716L36.5022 13.8502H40.8643L44.8433 25.0191L48.8036 13.8502H53.167L48.0161 28.0716Z" fill="#77493D"/>
</svg>
