<svg width="52" height="44" viewBox="0 0 52 44" fill="none" xmlns="http://www.w3.org/2000/svg">
<path d="M51.0132 13.7245L27.2476 0.31824C26.4365 -0.104144 25.5707 -0.108011 24.7522 0.31824L0.986576 13.7245C0.377202 14.0682 0 14.6821 0 15.2959V28.7021C0 29.316 0.377202 29.9298 0.986678 30.2736L24.7523 43.6818C25.5634 44.1041 26.4292 44.108 27.2477 43.6818L51.0133 30.2736C51.6227 29.9299 52 29.316 52 28.7021V15.2959C51.9999 14.6821 51.6227 14.0682 51.0132 13.7245ZM28.2343 5.42526L45.7321 15.2959L37.9263 19.7156L28.2343 14.2401V5.42526ZM23.7656 5.42526V14.2401L14.0736 19.7156L6.26782 15.2959L23.7656 5.42526ZM4.46874 18.8316L10.0692 21.9991L4.46874 25.1665V18.8316ZM23.7656 38.5728L6.26782 28.7022L14.0736 24.2825L23.7656 29.758V38.5728ZM26 26.4678L18.107 21.9991L26 17.5303L33.8929 21.9991L26 26.4678ZM28.2343 38.5728V29.758L37.9263 24.2825L45.7321 28.7022L28.2343 38.5728ZM47.5312 25.1665L41.9307 21.9991L47.5312 18.8316V25.1665Z" fill="#77493D"/>
</svg>
